<svg version="1" xmlns="http://www.w3.org/2000/svg" width="346.667" height="346.667" viewBox="0 0 260.000000 260.000000"><path d="M125.1 32.3c-1.8.6-5.6 3.1-8.3 5.6l-4.9 4.6 1.5 4.3c1.1 3 1.2 4.1.3 3.5-.7-.4-4.2-2.6-7.9-5-10.9-7-18.7-9.5-28.4-9.1-6.9.3-9.1.8-15.5 4C40.5 51 24.4 77 30.4 91.4c2 4.9 6.4 7.9 10.5 7.2 4.6-.7 7.5-2.8 9.4-6.9 1.7-3.5 1.7-3.5-1.9-9.3C45.1 77 44.9 76 45.2 70c.4-8.3 4.5-14.6 12.1-19 13.9-7.9 26.5-4.1 67.7 20.5 10.7 6.4 19.6 11.8 19.8 12 .2.2-2.2 7.2-5.4 15.7-5.4 14.5-6.7 20.9-4.7 22.9.6.6 4.2-6.2 9-16.8 5-11 8.7-17.7 9.5-17.6.7.1 4 1.2 7.3 2.4 18.7 6.6 40.9.6 57.1-15.6 7.9-7.9 11.3-13.9 12.1-21.8 2.4-23.3-27.4-30.7-33.6-8.4l-1.3 4.6 4 4.8c7.8 9.3 8.1 17.9.8 24.8-7.3 7.1-18.4 8.4-32.3 4-11.2-3.5-11.8-4.1-10.2-9.6 1.7-6.4 1.5-18.5-.5-23.8-5.1-13.6-18.8-20.9-31.5-16.8zM139 43.5c3.6 1.9 7.4 6.8 9 11.8 1.2 3.8 1.1 17-.2 18.2-1.7 1.8-19.8-10.2-22.8-15-2.9-4.6-2.7-10.9.5-14 2.9-2.9 8.9-3.4 13.5-1z"/><path d="M87.6 99.5c-12 4.9-21 17.3-24.6 34-1.6 7.1-1.4 24.8.4 33.2 6.9 33.1 34.2 60.9 67.5 68.9 10.1 2.4 27.2 2.9 35.9 1 20.3-4.3 33.3-15.9 30.7-27.5-1.5-6.8-10.5-10.7-17.2-7.5-3.4 1.7-3.9 2.5-5.4 8.6-3.8 15.3-12.8 21.9-26.3 19.4-7.4-1.4-13-10-11.1-17.3 1.2-5.2 10.2-12.4 25-20.2 17.4-9.1 23.3-12.9 29.6-18.7 10.1-9.6 14.4-20.1 13.7-33.8-.9-17.6-11.4-30.5-27.6-33.6-15.3-3.1-28.2 2.8-38.4 17.5-7.1 10.2-9 10-10.8-.9-2.7-16.9-12.1-25.6-28-25.6-5.7 0-9 .6-13.4 2.5z"/></svg>